HIERARCHY
ROOT Hips
{
  OFFSET 1.44925e-005 102.336 -0.101585
  CHANNELS 6 Xposition Yposition Zposition Zrotation Xrotation Yrotation
  JOINT LeftUpLeg
  {
    OFFSET 8.9458 -8.66707 0.101652
    CHANNELS 3 Zrotation Xrotation Yrotation
    JOINT LeftLeg
    {
      OFFSET 0 -44.4227 1.3727
      CHANNELS 3 Zrotation Xrotation Yrotation
      JOINT LeftFoot
      {
        OFFSET -0.253549 -42.0924 -1.46059
        CHANNELS 3 Zrotation Xrotation Yrotation
        JOINT LeftToes
        {
          OFFSET -0.04 -4.41509 8.4991
          CHANNELS 3 Zrotation Xrotation Yrotation
          End Site
          {
            OFFSET 0.08 -0.047448 9.77979
          }
        }
      }
    }
  }
  JOINT Spine
  {
    OFFSET 0 11.8905 0
    CHANNELS 3 Zrotation Xrotation Yrotation
    JOINT Spine1
    {
      OFFSET 0 25.6574 0.127663
      CHANNELS 3 Zrotation Xrotation Yrotation
      JOINT RightShoulder
      {
        OFFSET -8.99 -0.362252 -0.22
        CHANNELS 3 Zrotation Xrotation Yrotation
        JOINT RightArm
        {
          OFFSET -10.2827 -0.00338 0.322123
          CHANNELS 3 Zrotation Xrotation Yrotation
          JOINT RightForeArm
          {
            OFFSET -26.364 0.099144 -1.42434
            CHANNELS 3 Zrotation Xrotation Yrotation
            JOINT RightHand
            {
              OFFSET -22.0324 0.085362 1.02216
              CHANNELS 3 Zrotation Xrotation Yrotation
              End Site
              {
                OFFSET -13.3284 -0.6 1.50291
              }
            }
          }
        }
      }
      JOINT LeftShoulder1
      {
        OFFSET 8.99 -0.362252 -0.22
        CHANNELS 3 Zrotation Xrotation Yrotation
        JOINT LeftArm
        {
          OFFSET 10.2827 -0.00337999 0.322123
          CHANNELS 3 Zrotation Xrotation Yrotation
          JOINT LeftForeArm
          {
            OFFSET 26.2597 0.099144 -1.42434
            CHANNELS 3 Zrotation Xrotation Yrotation
            JOINT LeftHand
            {
              OFFSET 22.0902 0.085362 1.02216
              CHANNELS 3 Zrotation Xrotation Yrotation
              End Site
              {
                OFFSET 13.419 -0.6 1.50291
              }
            }
          }
        }
      }
      JOINT Head
      {
        OFFSET 0 8.73416 0.011341
        CHANNELS 3 Zrotation Xrotation Yrotation
        End Site
        {
          OFFSET -0.29 12.7742 2.51395
        }
      }
    }
  }
  JOINT RightUpLeg
  {
    OFFSET -8.9458 -8.66707 0.101652
    CHANNELS 3 Zrotation Xrotation Yrotation
    JOINT RightLeg
    {
      OFFSET 0 -44.4227 1.3727
      CHANNELS 3 Zrotation Xrotation Yrotation
      JOINT RightFoot
      {
        OFFSET 0.253549 -42.0924 -1.46059
        CHANNELS 3 Zrotation Xrotation Yrotation
        JOINT RightToes
        {
          OFFSET 0.04 -4.41509 8.4991
          CHANNELS 3 Zrotation Xrotation Yrotation
          End Site
          {
            OFFSET -0.08 -0.137448 9.77979
          }
        }
      }
    }
  }
}
MOTION
Frames:	15
Frame Time:	0.0333333
34.5867 102.042 -0.89236 -7.28122 -2.5348 -83.259 -1.04927 3.41169 2.80199 -0.16955 10.6322 20.2461 -3.1684 -10.4899 -0.0323851 -1.33437e-009 8.75235e-006 -1.46841e-008 5.16751 8.10173 1.37859 -7.52034 0.511108 3.14245 35.3037 1.80941 0.32383 45.4996 -24.0989 9.05304 8.7334 43.4214 4.9929 -6.19603 9.62518 0.403724 -46.1171 3.79349 -3.65783 -25.1152 -12.1588 1.22244 -5.61415 34.2462 -13.7706 5.82328 9.61819 -0.917488 1.2562 -3.53684 -1.01145 -2.5699 5.10546 -6.20344 0.573724 12.2227 -14.5807 4.6401 -14.5678 0.0671307 0.0462048 0.000530889 0.662642 
34.6121 102.045 -0.832101 -7.36952 -2.46774 -83.9239 -1.04617 3.58948 2.92773 -0.24559 10.5384 20.7889 -3.14551 -10.5033 -0.0323865 -1.33437e-009 8.75235e-006 -1.46841e-008 4.87425 8.18516 1.29845 -7.29784 0.489218 3.00069 35.4935 1.80941 0.315577 45.407 -24.1318 9.05643 8.72581 43.4217 4.97732 -6.11686 9.6449 0.0482604 -45.9735 3.77828 -3.65079 -25.3078 -12.3294 1.1687 -5.56983 34.6666 -13.7202 5.82328 9.61819 -0.917488 1.53621 -3.94039 -2.01571 -2.57755 5.06142 -6.11536 0.454173 12.2711 -13.9911 4.60749 -14.5095 0.0631068 0.0462048 0.000530889 0.662642 
34.6451 102.052 -0.719063 -7.50679 -2.32009 -85.0908 -1.03499 3.87998 3.13867 -0.369142 10.3925 21.7422 -3.14995 -10.5386 -0.0323903 -1.33437e-009 8.75235e-006 -1.46841e-008 4.35348 8.22287 1.14371 -6.84699 0.557561 2.72425 35.7192 1.80945 0.305548 45.338 -24.3804 9.07389 8.75209 43.6968 4.78402 -6.224 9.65073 -0.194652 -45.8191 3.75915 -3.63794 -25.5692 -12.3291 1.09439 -5.49829 35.0394 -13.7263 5.82328 9.61819 -0.917488 1.99938 -4.72359 -3.49367 -2.57311 4.97438 -5.95213 0.248943 12.3454 -12.9695 4.56319 -14.4103 0.0568845 0.0462048 0.000530889 0.662642 
34.6729 102.061 -0.597622 -7.56109 -2.14337 -86.2271 -1.01946 4.07723 3.32286 -0.472846 10.2504 22.7009 -3.16326 -10.5726 -0.0323938 -1.33437e-009 8.75235e-006 -1.46841e-008 3.88472 8.09596 0.995824 -6.36807 0.739028 2.44997 35.8484 1.80968 0.301213 45.2852 -24.6905 9.0515 8.87226 44.1352 4.40747 -6.62487 9.62398 -0.0145437 -45.8068 3.75681 -3.63471 -25.6703 -12.0612 1.00797 -5.43588 35.0288 -13.8232 5.82328 9.61819 -0.917488 2.34244 -5.54013 -4.39147 -2.54661 4.81462 -5.76887 0.0545509 12.3967 -11.997 4.51082 -14.3129 0.0513327 0.0462048 0.000530889 0.662642 
34.6952 102.07 -0.483341 -7.5401 -1.98207 -87.1583 -1.00568 4.18656 3.46318 -0.564137 10.0923 23.5229 -3.11847 -10.5955 -0.0323962 -1.33437e-009 8.75235e-006 -1.46841e-008 3.55955 7.91263 0.894975 -5.97046 0.911944 2.24798 35.8953 1.81006 0.305002 45.1559 -24.8126 8.87472 9.03914 44.4828 4.04485 -6.91008 9.59811 0.236093 -45.8337 3.76259 -3.64111 -25.6771 -11.7838 0.890403 -5.36024 34.8785 -13.963 5.82328 9.61819 -0.917488 2.53943 -6.2329 -4.63246 -2.50485 4.63744 -5.58583 -0.118485 12.3881 -11.2164 4.4738 -14.2198 0.0489537 0.0462048 0.000530889 0.662642 
34.7028 102.077 -0.371603 -7.56579 -1.84551 -87.9348 -0.992272 4.34472 3.60322 -0.657979 9.93751 24.192 -3.04574 -10.6368 -0.0324006 -1.33437e-009 8.75235e-006 -1.46841e-008 3.33228 7.79658 0.827369 -5.6761 1.04234 2.10806 35.9132 1.81057 0.307308 44.9581 -24.8156 8.5203 9.16643 44.7264 3.80056 -6.80714 9.604 0.21616 -45.7496 3.75537 -3.64135 -25.7624 -11.6427 0.703011 -5.24391 34.8489 -14.1111 5.82328 9.61819 -0.917488 2.74065 -6.83872 -4.79608 -2.4553 4.56375 -5.41046 -0.295379 12.3379 -10.5702 4.49851 -14.1286 0.0477853 0.0462048 0.000530889 0.662642 
34.6902 102.078 -0.260522 -7.67218 -1.74222 -88.5803 -0.996294 4.55846 3.74021 -0.742845 9.86332 24.7063 -3.02541 -10.7165 -0.0324091 -1.33437e-009 8.75235e-006 -1.46841e-008 3.13901 7.7074 0.774271 -5.45579 1.20444 1.99969 35.9387 1.81117 0.303786 44.7768 -24.9838 8.11777 9.2958 45.0306 3.46272 -6.61804 9.62068 0.0620577 -45.6132 3.73907 -3.63081 -25.8833 -11.5302 0.440496 -5.09884 34.8939 -14.2729 5.82328 9.61819 -0.917488 2.95688 -7.39231 -5.13493 -2.42315 4.57825 -5.25715 -0.477439 12.3517 -10.0359 4.58001 -14.0703 0.0474965 0.0462048 0.000530889 0.662642 
34.6747 102.08 -0.153743 -7.75831 -1.68638 -89.0684 -1.04026 4.70623 3.816 -0.803615 9.85904 25.1106 -3.02159 -10.7888 -0.0324169 -1.33437e-009 8.75235e-006 -1.46841e-008 2.94479 7.57981 0.733113 -5.2236 1.36888 1.90205 36.0026 1.81185 0.296197 44.6083 -25.3317 7.80925 9.5473 45.4169 2.79858 -6.67739 9.62068 0.00481943 -45.5985 3.73841 -3.63177 -25.8534 -11.2868 0.197221 -4.92667 34.7977 -14.5026 5.82328 9.61819 -0.917488 3.02926 -7.82683 -5.34677 -2.42614 4.55074 -5.13386 -0.650037 12.4591 -9.6394 4.66275 -14.0469 0.0477509 0.0462048 0.000530889 0.662642 
34.6779 102.083 -0.0502716 -7.75613 -1.65117 -89.4416 -1.1052 4.74802 3.82429 -0.845519 9.82542 25.4893 -2.92757 -10.8037 -0.0311466 -1.33437e-009 8.75235e-006 -1.46841e-008 2.75522 7.47733 0.692939 -4.93235 1.39549 1.79702 36.134 1.81257 0.288419 44.3613 -25.5771 7.59675 9.89799 45.7461 1.9642 -6.77738 9.61857 -0.0466694 -45.7048 3.75658 -3.65027 -25.6798 -10.8728 0.0784078 -4.70968 34.4336 -14.8477 5.82328 9.61819 -0.917488 2.92536 -8.10634 -5.26223 -2.43387 4.45247 -5.02099 -0.810698 12.5251 -9.35326 4.72827 -14.0011 0.0482002 0.0462048 0.000530889 0.662642 
34.6948 102.086 0.0536253 -7.71473 -1.59197 -89.768 -1.1516 4.75612 3.82414 -0.872431 9.74561 25.8524 -2.75738 -10.7878 -0.0266139 -1.33437e-009 8.75235e-006 -1.46841e-008 2.6456 7.46478 0.640565 -4.70692 1.27123 1.69357 36.3034 1.81331 0.2766 44.0552 -25.6732 7.3877 10.1812 46.0319 1.33687 -6.59202 9.63421 -0.194118 -45.7609 3.76794 -3.66335 -25.5611 -10.4032 0.0427474 -4.50492 33.9077 -15.2157 5.82328 9.61819 -0.917488 2.8139 -8.31816 -5.14477 -2.41588 4.37737 -4.91049 -0.942594 12.4512 -9.11883 4.79077 -13.9078 0.0485031 0.0462048 0.000530889 0.662642 
34.7053 102.088 0.160466 -7.69748 -1.51953 -90.0484 -1.18792 4.78603 3.82012 -0.875593 9.67998 26.1476 -2.62811 -10.7928 -0.0236802 -1.33437e-009 8.75235e-006 -1.46841e-008 2.6916 7.47776 0.588763 -4.69722 1.14749 1.63093 36.4005 1.81404 0.262737 43.8481 -25.7626 7.14301 10.2753 46.3227 1.08332 -6.27228 9.65034 -0.231485 -45.7112 3.75963 -3.6551 -25.5551 -10.0608 -0.0357836 -4.41192 33.499 -15.4277 5.82328 9.61819 -0.917488 2.7852 -8.53633 -5.21338 -2.41494 4.36746 -4.85636 -1.00066 12.3265 -8.88593 4.81608 -13.8189 0.0483351 0.0462048 0.000530889 0.662642 
34.707 102.088 0.272088 -7.70631 -1.48061 -90.2584 -1.26064 4.84169 3.80475 -0.861227 9.61896 26.3758 -2.57532 -10.8087 -0.0214882 -1.33437e-009 8.75235e-006 -1.46841e-008 2.81977 7.45058 0.560894 -4.79362 1.10652 1.61391 36.3301 1.81474 0.261192 43.8348 -25.8837 6.93017 10.2404 46.5635 1.06222 -6.15218 9.64664 -0.0298275 -45.6913 3.75173 -3.6431 -25.5272 -9.89134 -0.153133 -4.40183 33.3633 -15.4789 5.82328 9.61819 -0.917488 2.71418 -8.70102 -5.33888 -2.49248 4.37237 -4.91247 -0.976691 12.275 -8.61165 4.77082 -13.7766 0.0474016 0.0462048 0.000530889 0.662642 
34.7143 102.092 0.385376 -7.72159 -1.47348 -90.3967 -1.35808 4.9191 3.76009 -0.85246 9.50331 26.5658 -2.53941 -10.7943 -0.0199649 -1.33437e-009 8.75235e-006 -1.46841e-008 2.84819 7.4232 0.551919 -4.71111 1.08431 1.58548 36.1315 1.81538 0.277887 43.9271 -25.9099 6.83626 10.1975 46.5846 1.12028 -6.22109 9.63648 0.12579 -45.7736 3.75984 -3.64605 -25.4483 -9.73918 -0.201188 -4.34911 33.3542 -15.5491 5.82328 9.61819 -0.917488 2.49832 -8.73362 -5.34319 -2.61091 4.38225 -5.02767 -0.933631 12.2453 -8.33611 4.7273 -13.74 0.0460449 0.0462048 0.000530889 0.662642 
34.7308 102.106 0.4914 -7.72975 -1.45137 -90.4483 -1.41826 4.98558 3.72006 -0.85192 9.36623 26.6809 -2.49731 -10.7544 -0.0188782 -1.33437e-009 8.75235e-006 -1.46841e-008 2.72753 7.42173 0.535207 -4.39323 1.03204 1.50497 35.9706 1.81594 0.295821 43.9736 -25.7933 6.86962 10.1728 46.2798 1.25842 -6.30361 9.63942 -0.0237481 -45.834 3.76764 -3.65173 -25.4731 -9.51002 -0.186166 -4.26975 33.3038 -15.6642 5.82328 9.61819 -0.917488 2.24458 -8.6721 -5.26681 -2.67385 4.44097 -5.09859 -0.918069 12.1029 -8.19811 4.77357 -13.6502 0.0441383 0.0462048 0.000530889 0.662642 
34.7469 102.122 0.588671 -7.70409 -1.40185 -90.3967 -1.42844 4.97589 3.69336 -0.842835 9.29623 26.686 -2.46999 -10.729 -0.0178239 -1.33437e-009 8.75235e-006 -1.46841e-008 2.619 7.39279 0.50018 -4.10818 0.959994 1.40935 35.9868 1.81639 0.295027 43.9126 -25.6406 6.96247 10.122 45.8116 1.51591 -6.41152 9.64541 -0.260098 -45.7489 3.75359 -3.6379 -25.6697 -9.37863 -0.212546 -4.33349 33.3574 -15.5964 5.82328 9.61819 -0.917488 2.11633 -8.58788 -5.22684 -2.68083 4.52378 -5.12877 -0.889577 11.8599 -8.23168 4.8471 -13.5209 0.0412692 0.0462048 0.000530889 0.662642 
